<mxfile host="app.diagrams.net" modified="2020-12-16T18:47:56.371Z" agent="5.0 (Windows NT 10.0; Win64; x64) AppleWebKit/537.36 (KHTML, like Gecko) Chrome/87.0.4280.88 Safari/537.36" etag="UXd1BPsuSP0GTIJOGHO8" version="14.0.4" type="github">
  <diagram id="gX4wris3mb_DUg0VSxXF" name="Page-1">
    <mxGraphModel dx="1447" dy="750" grid="0" gridSize="10" guides="1" tooltips="1" connect="0" arrows="0" fold="1" page="1" pageScale="1" pageWidth="1400" pageHeight="1700" math="0" shadow="0">
      <root>
        <mxCell id="0" />
        <mxCell id="1" parent="0" />
        <mxCell id="mZss-b2yl9125BtwwbxF-1" value="" style="rounded=0;whiteSpace=wrap;html=1;fillColor=#3333FF;" vertex="1" parent="1">
          <mxGeometry x="22" y="19" width="946" height="60" as="geometry" />
        </mxCell>
        <mxCell id="mZss-b2yl9125BtwwbxF-2" value="" style="rounded=0;whiteSpace=wrap;html=1;align=left;" vertex="1" parent="1">
          <mxGeometry x="72" y="166" width="720" height="174" as="geometry" />
        </mxCell>
        <mxCell id="mZss-b2yl9125BtwwbxF-3" value="" style="rounded=0;whiteSpace=wrap;html=1;align=left;" vertex="1" parent="1">
          <mxGeometry x="70" y="416" width="721" height="190" as="geometry" />
        </mxCell>
        <mxCell id="mZss-b2yl9125BtwwbxF-4" value="My Assigned Tasks" style="text;html=1;strokeColor=none;fillColor=none;align=center;verticalAlign=middle;whiteSpace=wrap;rounded=0;fontColor=#999999;" vertex="1" parent="1">
          <mxGeometry x="70" y="130" width="116" height="20" as="geometry" />
        </mxCell>
        <mxCell id="mZss-b2yl9125BtwwbxF-5" value="My Group&#39;s Assigned Tasks" style="text;html=1;strokeColor=none;fillColor=none;align=center;verticalAlign=middle;whiteSpace=wrap;rounded=0;fontStyle=0;fontColor=#999999;" vertex="1" parent="1">
          <mxGeometry x="62" y="368" width="180" height="20" as="geometry" />
        </mxCell>
        <mxCell id="mZss-b2yl9125BtwwbxF-7" value="&lt;font style=&quot;font-size: 14px&quot;&gt;FEEDBACK&lt;/font&gt;" style="rounded=1;whiteSpace=wrap;html=1;fillColor=#FF8000;strokeColor=#FF8000;fontColor=#FFFFFF;" vertex="1" parent="1">
          <mxGeometry x="822" y="29" width="120" height="40" as="geometry" />
        </mxCell>
        <mxCell id="mZss-b2yl9125BtwwbxF-8" value="" style="shape=image;html=1;verticalAlign=top;verticalLabelPosition=bottom;labelBackgroundColor=#ffffff;imageAspect=0;aspect=fixed;image=https://cdn3.iconfinder.com/data/icons/social-media-2125/78/bell-128.png;strokeColor=#FF8000;fillColor=#FF8000;fontColor=#FFFFFF;" vertex="1" parent="1">
          <mxGeometry x="765" y="29" width="37" height="37" as="geometry" />
        </mxCell>
        <mxCell id="mZss-b2yl9125BtwwbxF-9" value="" style="fillColor=#f5f5f5;strokeColor=#666666;gradientColor=#b3b3b3;" vertex="1" parent="1">
          <mxGeometry x="75" y="722" width="30" height="100" as="geometry" />
        </mxCell>
        <mxCell id="mZss-b2yl9125BtwwbxF-10" value="" style="shape=mxgraph.arrows2.arrow;dy=0.4;dx=16;notch=0;direction=north;fillColor=#f5f5f5;strokeColor=#666666;gradientColor=#b3b3b3;" vertex="1" parent="mZss-b2yl9125BtwwbxF-9">
          <mxGeometry x="3" y="30" width="24" height="70" as="geometry" />
        </mxCell>
        <mxCell id="mZss-b2yl9125BtwwbxF-11" value="Label" style="text;html=1;align=center;verticalAlign=middle;whiteSpace=wrap;fontSize=10;gradientColor=#b3b3b3;fillColor=#f5f5f5;strokeColor=#666666;" vertex="1" parent="mZss-b2yl9125BtwwbxF-9">
          <mxGeometry width="30" height="20" as="geometry" />
        </mxCell>
        <mxCell id="mZss-b2yl9125BtwwbxF-12" value="" style="fillColor=#f5f5f5;strokeColor=#666666;gradientColor=#b3b3b3;" vertex="1" parent="1">
          <mxGeometry x="110" y="702" width="30" height="120" as="geometry" />
        </mxCell>
        <mxCell id="mZss-b2yl9125BtwwbxF-13" value="" style="shape=mxgraph.arrows2.arrow;dy=0.4;dx=16;notch=0;direction=south;fillColor=#f5f5f5;strokeColor=#666666;gradientColor=#b3b3b3;" vertex="1" parent="mZss-b2yl9125BtwwbxF-12">
          <mxGeometry x="3" width="24" height="80" as="geometry" />
        </mxCell>
        <mxCell id="mZss-b2yl9125BtwwbxF-14" value="Label" style="text;html=1;align=center;verticalAlign=middle;whiteSpace=wrap;fontSize=10;gradientColor=#b3b3b3;fillColor=#f5f5f5;strokeColor=#666666;" vertex="1" parent="mZss-b2yl9125BtwwbxF-12">
          <mxGeometry width="30" height="20" as="geometry" />
        </mxCell>
        <mxCell id="mZss-b2yl9125BtwwbxF-15" value="" style="fillColor=#f5f5f5;strokeColor=#666666;gradientColor=#b3b3b3;" vertex="1" parent="1">
          <mxGeometry x="145" y="692" width="30" height="130" as="geometry" />
        </mxCell>
        <mxCell id="mZss-b2yl9125BtwwbxF-16" value="" style="shape=mxgraph.arrows2.arrow;dy=0.4;dx=16;notch=0;direction=north;fillColor=#f5f5f5;strokeColor=#666666;gradientColor=#b3b3b3;" vertex="1" parent="mZss-b2yl9125BtwwbxF-15">
          <mxGeometry x="3" y="80" width="24" height="50" as="geometry" />
        </mxCell>
        <mxCell id="mZss-b2yl9125BtwwbxF-17" value="Label" style="text;html=1;align=center;verticalAlign=middle;whiteSpace=wrap;fontSize=10;gradientColor=#b3b3b3;fillColor=#f5f5f5;strokeColor=#666666;" vertex="1" parent="mZss-b2yl9125BtwwbxF-15">
          <mxGeometry width="30" height="20" as="geometry" />
        </mxCell>
        <mxCell id="mZss-b2yl9125BtwwbxF-18" value="" style="fillColor=#f5f5f5;strokeColor=#666666;gradientColor=#b3b3b3;" vertex="1" parent="1">
          <mxGeometry x="180" y="742" width="30" height="80" as="geometry" />
        </mxCell>
        <mxCell id="mZss-b2yl9125BtwwbxF-19" value="" style="shape=mxgraph.arrows2.arrow;dy=0.4;dx=16;notch=0;direction=south;fillColor=#f5f5f5;strokeColor=#666666;gradientColor=#b3b3b3;" vertex="1" parent="mZss-b2yl9125BtwwbxF-18">
          <mxGeometry x="3" width="24" height="30" as="geometry" />
        </mxCell>
        <mxCell id="mZss-b2yl9125BtwwbxF-20" value="Label" style="text;html=1;align=center;verticalAlign=middle;whiteSpace=wrap;fontSize=10;gradientColor=#b3b3b3;fillColor=#f5f5f5;strokeColor=#666666;" vertex="1" parent="mZss-b2yl9125BtwwbxF-18">
          <mxGeometry width="30" height="20" as="geometry" />
        </mxCell>
        <mxCell id="mZss-b2yl9125BtwwbxF-21" value="" style="fillColor=#f5f5f5;strokeColor=#666666;gradientColor=#b3b3b3;" vertex="1" parent="1">
          <mxGeometry x="215" y="752" width="30" height="70" as="geometry" />
        </mxCell>
        <mxCell id="mZss-b2yl9125BtwwbxF-22" value="" style="shape=mxgraph.arrows2.arrow;dy=0.4;dx=16;notch=0;direction=north;fillColor=#f5f5f5;strokeColor=#666666;gradientColor=#b3b3b3;" vertex="1" parent="mZss-b2yl9125BtwwbxF-21">
          <mxGeometry x="3" y="10" width="24" height="60" as="geometry" />
        </mxCell>
        <mxCell id="mZss-b2yl9125BtwwbxF-23" value="Label" style="text;html=1;align=center;verticalAlign=middle;whiteSpace=wrap;fontSize=10;gradientColor=#b3b3b3;fillColor=#f5f5f5;strokeColor=#666666;" vertex="1" parent="mZss-b2yl9125BtwwbxF-21">
          <mxGeometry width="30" height="20" as="geometry" />
        </mxCell>
        <mxCell id="mZss-b2yl9125BtwwbxF-25" value="" style="html=1;verticalLabelPosition=bottom;align=center;labelBackgroundColor=#ffffff;verticalAlign=top;strokeWidth=2;strokeColor=#666666;shadow=0;dashed=0;shape=mxgraph.ios7.icons.pie_chart;fillColor=#f5f5f5;gradientColor=#b3b3b3;" vertex="1" parent="1">
          <mxGeometry x="348" y="700" width="140" height="112" as="geometry" />
        </mxCell>
        <mxCell id="mZss-b2yl9125BtwwbxF-26" value="" style="shape=image;html=1;verticalAlign=top;verticalLabelPosition=bottom;labelBackgroundColor=#ffffff;imageAspect=0;aspect=fixed;image=https://cdn2.iconfinder.com/data/icons/ios-7-icons/50/line_chart-128.png;strokeColor=#FF8000;fillColor=#FF8000;fontColor=#FFFFFF;" vertex="1" parent="1">
          <mxGeometry x="630" y="684" width="128" height="128" as="geometry" />
        </mxCell>
      </root>
    </mxGraphModel>
  </diagram>
</mxfile>
